<svg width="60" height="44" viewBox="0 0 60 44" fill="none" xmlns="http://www.w3.org/2000/svg">
<path d="M8.96964 41.1795C6.16662 39.4872 3.92423 37.2308 2.24242 33.8461C0.560611 30.4615 0 26.5128 0 22C0 17.4872 0.560611 13.5385 2.24242 10.1539C3.92423 6.76924 6.16662 4.51282 8.96964 2.82051C11.7727 1.1282 15.1363 0 18.4999 0C21.8635 0 25.2271 1.1282 28.0301 2.82051C30.8332 4.51282 33.0756 6.76924 34.7574 10.1539C36.4392 13.5385 36.9998 17.4872 36.9998 22C36.9998 26.5128 36.4392 30.4615 34.7574 33.8461C33.0756 37.2308 30.8332 39.4872 28.0301 41.1795C25.2271 42.8718 21.8635 44 18.4999 44C15.1363 43.4359 11.7727 42.8718 8.96964 41.1795ZM22.9847 31.0256C24.1059 29.3333 24.6665 25.9487 24.6665 22C24.6665 18.0513 24.1059 14.6667 22.9847 12.9744C21.8635 11.2821 20.1817 10.1539 18.4999 10.1539C16.2575 10.1539 15.1363 11.2821 14.0151 12.9744C12.8939 14.6667 12.3333 18.0513 12.3333 22C12.3333 25.9487 12.8939 29.3333 14.0151 31.0256C15.1363 32.7179 16.8181 33.8461 18.4999 33.8461C20.1817 33.8461 21.8635 33.282 22.9847 31.0256Z" fill="white"/>
<path d="M59.9999 1V43H48.5999V10.0811H41V1H59.9999Z" fill="white"/>
</svg>
